# xmcd CD database file
#
# Track frame offsets:
#	150
#	26186
#	60942
#	94385
#	122735
#	154821
#	175648
#	201839
#
# Disc length: 3077 seconds
#
# Revision: 1
# Processed by: cddbd v1.5.2PL0 Copyright (c) Steve Scherf et al.
# Submitted via: CDex 1.51
#
DISCID=650c0308
DTITLE=Bluestrings - Seitenwechsel
DYEAR=2006
DGENRE=Jazz
TTITLE0=Minor Swing
TTITLE1=It don't mean a thing
TTITLE2=Single day with you
TTITLE3=Mercy, Mercy, Mercy
TTITLE4=Fuga in Blau
TTITLE5=Stolen Moments
TTITLE6=Spain
TTITLE7=Sweet Home Alabama
EXTD=YEAR: 2006
EXTT0=
EXTT1=
EXTT2=
EXTT3=
EXTT4=
EXTT5=
EXTT6=
EXTT7=
PLAYORDER=
